<svg xmlns="http://www.w3.org/2000/svg" width="320" height="285" viewBox="0 0 320 285">
    <g fill="none" fill-rule="evenodd">
        <path fill="#E1313C" d="M111.07 95v.002l-.036-.001C85.611 95 65 115.37 65 140.498c0 25.129 18.879 45.499 46.034 45.499h27.635v-22.75h-27.6c-12.703 0-23-10.184-23-22.749 0-12.563 10.297-22.748 23-22.748h27.6V95h-27.6z"/>
        <path fill="#47525D" d="M189.425 159.998l18.4 26h27.997l-32.596-45.5zM207.825 95l-18.4 26 13.8 19.499L235.822 95z"/>
        <path fill="#E02830" d="M189.425 121l-18.4-26h-27.572l32.172 45.499-32.172 45.498h27.572l18.4-25.999 13.8-19.5z"/>
    </g>
</svg>
