<?xml version="1.0" encoding="UTF-8" standalone="no"?>
<!-- Created with Inkscape (http://www.inkscape.org/) -->

<svg
   xmlns:dc="http://purl.org/dc/elements/1.1/"
   xmlns:cc="http://creativecommons.org/ns#"
   xmlns:rdf="http://www.w3.org/1999/02/22-rdf-syntax-ns#"
   xmlns:svg="http://www.w3.org/2000/svg"
   xmlns="http://www.w3.org/2000/svg"
   xmlns:sodipodi="http://sodipodi.sourceforge.net/DTD/sodipodi-0.dtd"
   xmlns:inkscape="http://www.inkscape.org/namespaces/inkscape"
   width="305.42462mm"
   height="104.78463mm"
   viewBox="0 0 1082.2132 371.28412"
   id="svg4643"
   version="1.1"
   inkscape:version="0.91 r13725"
   sodipodi:docname="Logo_caminho.svg">
  <defs
     id="defs4645" />
  <sodipodi:namedview
     id="base"
     pagecolor="#ffffff"
     bordercolor="#666666"
     borderopacity="1.0"
     inkscape:pageopacity="0.0"
     inkscape:pageshadow="2"
     inkscape:zoom="0.49497475"
     inkscape:cx="190.11456"
     inkscape:cy="205.07625"
     inkscape:document-units="px"
     inkscape:current-layer="text4579"
     showgrid="false"
     inkscape:window-width="1920"
     inkscape:window-height="1027"
     inkscape:window-x="0"
     inkscape:window-y="0"
     inkscape:window-maximized="1"
     fit-margin-top="0"
     fit-margin-left="0"
     fit-margin-right="0"
     fit-margin-bottom="0" />
  <metadata
     id="metadata4648">
    <rdf:RDF>
      <cc:Work
         rdf:about="">
        <dc:format>image/svg+xml</dc:format>
        <dc:type
           rdf:resource="http://purl.org/dc/dcmitype/StillImage" />
        <dc:title />
      </cc:Work>
    </rdf:RDF>
  </metadata>
  <g
     inkscape:groupmode="layer"
     id="layer2"
     inkscape:label="Camada 2"
     style="display:none">
    <rect
       style="fill:#666666;fill-opacity:1"
       id="rect3475"
       width="1274.8125"
       height="521.23871"
       x="-8.0812206"
       y="-50.959644" />
  </g>
  <g
     inkscape:label="Camada 1"
     inkscape:groupmode="layer"
     id="layer1"
     transform="translate(-53.964526,-312.43443)">
    <g
       transform="matrix(-0.82293408,-0.56813687,0.56813687,-0.82293408,0,0)"
       style="font-style:normal;font-variant:normal;font-weight:normal;font-stretch:normal;font-size:40px;line-height:125%;font-family:Ethnocentric;-inkscape-font-specification:Ethnocentric;letter-spacing:0px;word-spacing:0px;fill:#27e200;fill-opacity:1;stroke:none;stroke-width:1px;stroke-linecap:butt;stroke-linejoin:miter;stroke-opacity:1"
       id="text4579">
      <path
         d="m -539.44952,-230.6107 31.25,-43 42,0 q 7.5,0 15.5,0 8.25,0 14.25,0.5 -3.5,-4.5 -8.25,-11.25 -4.5,-7 -8.75,-13 l -30,-44.25 -78.5,111 -61.25,0 107.25,-151.25 q 5.25,-7.25 13.25,-13 8,-5.75 20.25,-5.75 11.75,0 19.5,5.5 8,5.25 13.5,13.25 l 104.5,151.25 -194.5,0 z"
         style="font-style:normal;font-variant:normal;font-weight:normal;font-stretch:normal;font-size:250px;font-family:Ethnocentric;-inkscape-font-specification:Ethnocentric;fill:#27e200;fill-opacity:1"
         id="path3352" />
    </g>
    <g
       transform="matrix(0.82293408,0.56813687,-0.56813687,0.82293408,0,0)"
       style="font-style:normal;font-variant:normal;font-weight:normal;font-stretch:normal;font-size:40px;line-height:125%;font-family:Ethnocentric;-inkscape-font-specification:Ethnocentric;letter-spacing:0px;word-spacing:0px;fill:#057fc0;fill-opacity:1;stroke:none;stroke-width:1px;stroke-linecap:butt;stroke-linejoin:miter;stroke-opacity:1"
       id="text4579-3">
      <path
         d="m 585.40613,205.78096 31.25,-43 42,0 q 7.5,0 15.5,0 8.25,0 14.25,0.5 -3.5,-4.5 -8.25,-11.25 -4.5,-7 -8.75,-13 l -30,-44.25 -78.5,111 -61.25,0 107.25,-151.25 q 5.25,-7.25 13.25,-13 8,-5.75 20.25,-5.75 11.75,0 19.5,5.5 8,5.25 13.5,13.25 l 104.5,151.25 -194.5,0 z"
         style="font-style:normal;font-variant:normal;font-weight:normal;font-stretch:normal;font-size:250px;font-family:Ethnocentric;-inkscape-font-specification:Ethnocentric;fill:#057fc0;fill-opacity:1"
         id="path3349" />
    </g>
    <g
       style="font-style:normal;font-weight:normal;font-size:60px;line-height:125%;font-family:sans-serif;letter-spacing:0px;word-spacing:0px;fill:#333333;fill-opacity:1;stroke:none;stroke-width:1px;stroke-linecap:butt;stroke-linejoin:miter;stroke-opacity:1"
       id="text3470">
      <path
         d="m 727.98716,539.62148 -23.94,30.96 -60.48,0 q -15.66,0 -28.98,-4.68 -13.32,-4.68 -23.04,-12.78 -9.54,-8.28 -15.12,-19.44 -5.4,-11.34 -5.4,-24.48 0,-13.14 5.4,-23.94 5.58,-10.98 15.12,-18.72 9.72,-7.92 23.04,-12.06 13.32,-4.32 28.98,-4.32 l 84.42,0 -23.94,31.32 -60.48,0 q -7.56,0 -14.04,2.16 -6.48,2.16 -11.16,6.12 -4.68,3.78 -7.38,9.18 -2.7,5.4 -2.7,11.88 0,6.48 2.52,11.88 2.7,5.22 7.38,9 4.86,3.78 11.34,5.94 6.48,1.98 14.04,1.98 l 84.42,0 z"
         style="font-style:normal;font-variant:normal;font-weight:normal;font-stretch:normal;font-size:180px;font-family:Ethnocentric;-inkscape-font-specification:Ethnocentric;fill:#333333;fill-opacity:1"
         id="path3342" />
      <path
         d="m 786.05966,570.58148 22.5,-30.96 30.24,0 q 5.4,0 11.16,0 5.94,0 10.26,0.36 -2.52,-3.24 -5.94,-8.1 -3.24,-5.04 -6.3,-9.36 l -21.6,-31.86 -56.52,79.92 -44.1,0 77.22,-108.9 q 3.78,-5.22 9.54,-9.36 5.76,-4.14 14.58,-4.14 8.46,0 14.04,3.96 5.76,3.78 9.72,9.54 l 75.24,108.9 -140.04,0 z"
         style="font-style:normal;font-variant:normal;font-weight:normal;font-stretch:normal;font-size:180px;font-family:Ethnocentric;-inkscape-font-specification:Ethnocentric;fill:#333333;fill-opacity:1"
         id="path3344" />
      <path
         d="m 1050.9775,498.22148 q 22.14,0 33.66,8.28 11.52,8.1 11.52,24.66 0,9.18 -2.88,16.56 -2.88,7.38 -9.18,12.42 -6.3,5.04 -16.2,7.74 -9.72,2.7 -23.4,2.7 l -112.14002,0 23.94,-30.96 91.08002,0 q 6.66,0 9.72,-1.98 3.06,-2.16 3.06,-6.84 0,-4.68 -3.06,-6.66 -3.06,-1.98 -9.72,-1.98 l -65.52002,0 q -11.7,0 -20.16,-2.52 -8.46,-2.52 -14.04,-7.02 -5.58,-4.5 -8.28,-10.8 -2.7,-6.48 -2.7,-14.22 0,-8.46 2.88,-15.3 3.06,-7.02 9.18,-11.88 6.3,-4.86 16.02,-7.56 9.9,-2.7 23.58,-2.7 l 104.58002,0 -23.94,31.32 -83.52002,0 q -6.48,0 -9.72,1.8 -3.06,1.8 -3.06,6.48 0,4.68 3.06,6.66 3.24,1.8 9.72,1.8 l 65.52002,0 z"
         style="font-style:normal;font-variant:normal;font-weight:normal;font-stretch:normal;font-size:180px;font-family:Ethnocentric;-inkscape-font-specification:Ethnocentric;fill:#333333;fill-opacity:1"
         id="path3346" />
    </g>
  </g>
</svg>
